<?xml version="1.0" standalone="no"?><!DOCTYPE svg PUBLIC "-//W3C//DTD SVG 1.1//EN" "http://www.w3.org/Graphics/SVG/1.1/DTD/svg11.dtd"><svg t="1525428400668" class="icon" style="" viewBox="0 0 1024 1024" version="1.1" xmlns="http://www.w3.org/2000/svg" p-id="1460" xmlns:xlink="http://www.w3.org/1999/xlink" width="200" height="200"><defs><style type="text/css"></style></defs><path d="M866.961 815.533L527.808 928.219 145.364 813.227 87.728 227.65l431.776 93.943 408.492-80.366z" fill="#FFFFFF" p-id="1461"></path><path d="M517.193 957.558a21.54 21.54 0 0 1-10.237-2.575c-1.045-0.57-105.4-56.483-184.521-80.187-99.131-29.698-173.957-34.405-174.706-34.447-10.501-0.612-19.049-8.717-20.21-19.187l-65.36-586.944a21.617 21.617 0 0 1 4.834-16.189A21.616 21.616 0 0 1 82 210.272c12.453-0.95 25.392-1.425 38.447-1.425 177.84 0 356.609 87.036 398.043 108.534 149.113-92.894 351.639-100.26 411.309-100.26 7.514 0 11.63 0.127 11.63 0.127a21.675 21.675 0 0 1 15.683 7.472 21.612 21.612 0 0 1 5.108 16.601L893.558 839.04c-1.351 11.715-11.989 20.158-23.556 19.039-0.57-0.042-9.034-0.823-23.514-0.823-27.461 0-83.227 2.871-148.427 22.099-79.005 23.303-130.254 52.98-154.865 67.248-10.733 6.206-15.63 9.055-20.844 10.322a21.38 21.38 0 0 1-5.159 0.633zM168.52 798.831c29.16 3.145 90.551 11.862 166.326 34.553 69.433 20.812 153.746 63.238 182.537 78.224a414.618 414.618 0 0 1 4.148-2.406c26.078-15.113 80.345-46.542 164.289-71.301 70.414-20.77 130.887-23.872 160.669-23.872 2.258 0 4.411 0.021 6.438 0.063l63.597-553.605c-62.14 1.235-253.183 12.39-385.073 99.954-6.765 4.506-15.525 4.812-22.627 0.792l-3.799-2.079c-8.348-4.496-209.185-111.669-397.368-106.919l60.863 546.596z" fill="#00ccff" p-id="1462"></path><path d="M492.993 337.887h43.228v595.798h-43.228z" fill="#00ccff" p-id="1463"></path><path d="M501.109 344.589a21.624 21.624 0 0 1-16.379-7.483c-1.34-1.562-136.839-155.762-326.637-157.915-11.936-0.137-21.508-9.92-21.371-21.857 0.137-11.852 9.783-21.371 21.614-21.371h0.243c209.702 2.385 352.905 165.957 358.9 172.922 7.778 9.034 6.765 22.669-2.269 30.458a21.57 21.57 0 0 1-14.101 5.246z" fill="#00ccff" p-id="1464"></path><path d="M519.504 321.593c-8.453 0-16.485-4.992-19.957-13.277-0.781-1.868-80.166-186.304-263.536-192.626-11.926-0.412-21.266-10.416-20.854-22.353s10.121-21.498 22.353-20.854c211.496 7.303 298.353 210.567 301.952 219.211 4.559 11.018-0.654 23.63-11.651 28.231a21.592 21.592 0 0 1-8.307 1.668z" fill="#00ccff" p-id="1465"></path><path d="M528.707 323.904c-6.607 0-13.118-3.008-17.361-8.707-7.124-9.572-5.14-23.113 4.433-30.247 8.496-6.311 209.09-154.601 381.368-145.219 11.905 0.665 21.044 10.86 20.369 22.785-0.654 11.905-10.511 20.833-22.775 20.379-155.963-9.013-351.206 135.277-353.148 136.734a21.55 21.55 0 0 1-12.886 4.275z" fill="#00ccff" p-id="1466"></path><path d="M526.364 305.498a21.461 21.461 0 0 1-12.559-4.042c-9.699-6.944-11.936-20.432-5.002-30.141 6.1-8.517 151.118-208.372 326.711-198.811 11.905 0.665 21.044 10.86 20.369 22.785-0.654 11.905-10.554 20.801-22.775 20.379-150.876-8.707-287.778 178.927-289.15 180.816-4.223 5.88-10.861 9.014-17.594 9.014z" fill="#00ccff" p-id="1467"></path></svg>